<svg xmlns="http://www.w3.org/2000/svg" viewBox="0 0 540 624" width="540" height="624" role="img" aria-label="Beora mascot — coral parrot">
  <title>Beora parrot — coral</title>
  <path fill="#ED7B66" fill-rule="evenodd" d="M246 16L245 16L245 17L242 17L242 18L240 19L239 23L238 23L238 121L237 121L237 118L236 118L236 115L235 115L235 111L234 111L234 107L233 107L233 104L232 104L232 100L231 100L231 97L230 97L230 94L229 94L228 86L227 86L227 83L226 83L226 79L225 79L225 75L224 75L223 68L222 68L222 65L221 65L221 61L220 61L220 58L219 58L219 55L218 55L218 51L217 51L217 47L216 47L216 42L215 42L214 36L213 36L211 33L209 33L209 32L202 32L202 33L198 33L198 34L195 34L195 35L192 35L192 36L184 37L184 38L181 38L181 39L178 39L178 40L174 40L174 41L171 41L171 42L167 42L167 43L161 44L161 45L159 45L159 46L157 47L157 49L156 49L156 56L157 56L158 64L159 64L160 71L161 71L161 74L162 74L162 78L163 78L163 82L164 82L164 85L165 85L165 89L166 89L166 93L167 93L167 96L168 96L168 100L169 100L169 103L170 103L170 107L171 107L171 110L172 110L172 114L173 114L173 117L174 117L174 121L175 121L175 125L176 125L177 132L176 132L176 130L173 128L173 126L170 124L170 122L168 121L168 119L166 118L166 116L163 114L163 112L161 111L161 109L159 108L159 106L156 104L156 102L154 101L154 99L151 97L151 95L149 94L149 92L147 91L147 89L145 88L145 86L143 85L143 83L141 82L141 80L139 79L139 77L138 77L134 72L128 71L128 72L122 74L121 76L119 76L117 79L115 79L113 82L111 82L110 84L108 84L106 87L104 87L103 89L101 89L99 92L97 92L96 94L94 94L93 96L91 96L90 99L89 99L89 101L88 101L88 105L89 105L91 111L94 113L94 115L96 116L96 118L98 119L98 121L100 122L100 124L103 126L103 128L105 129L105 131L108 133L108 135L110 136L110 138L111 138L111 139L113 140L113 142L115 143L115 145L79 145L79 146L72 146L72 147L69 147L69 148L62 149L62 150L60 150L60 151L58 151L58 152L56 152L56 153L50 155L49 157L47 157L46 159L44 159L41 163L39 163L39 164L36 166L36 168L31 172L31 174L29 175L29 177L28 177L27 180L25 181L25 183L24 183L24 185L23 185L23 187L22 187L22 190L21 190L21 192L20 192L20 195L19 195L19 199L18 199L18 203L17 203L17 209L16 209L16 456L17 456L17 463L18 463L18 468L19 468L20 475L21 475L21 477L22 477L22 480L23 480L24 484L26 485L26 487L27 487L28 491L30 492L30 494L34 497L34 499L35 499L40 505L42 505L45 509L47 509L48 511L50 511L51 513L53 513L53 514L55 514L55 515L57 515L57 516L59 516L59 517L62 517L62 518L68 519L68 520L72 520L72 521L77 521L77 522L86 522L86 607L87 607L87 608L88 608L92 603L94 603L105 591L107 591L115 582L117 582L124 574L126 574L138 561L140 561L150 550L152 550L152 549L153 549L161 540L163 540L171 531L173 531L181 522L326 522L326 521L331 521L331 520L338 519L338 518L340 518L340 517L343 517L343 516L345 516L345 515L347 515L347 514L353 512L354 510L356 510L357 508L359 508L363 503L365 503L366 500L372 495L372 493L373 493L374 490L376 489L376 487L377 487L377 485L378 485L380 479L382 478L382 474L383 474L383 471L384 471L385 461L386 461L386 208L385 208L385 203L384 203L383 194L382 194L382 191L381 191L381 189L380 189L380 186L378 185L376 179L374 178L374 176L372 175L372 173L370 172L370 170L369 170L360 160L358 160L357 158L355 158L355 157L352 156L351 154L349 154L349 153L347 153L347 152L345 152L345 151L342 151L342 150L340 150L340 149L337 149L337 148L334 148L334 147L330 147L330 146L322 146L322 145L302 145L302 21L301 21L298 17L295 17L295 16L246 16ZM404 202L402 203L402 305L403 305L403 316L402 316L402 317L403 317L403 320L473 320L473 321L475 321L475 322L477 322L477 323L479 323L479 324L481 324L481 325L483 325L483 326L485 326L485 327L487 327L487 328L489 328L489 329L491 329L491 330L493 330L493 331L495 331L495 332L497 332L497 333L499 333L499 334L502 334L502 335L504 335L504 336L506 336L506 337L508 337L508 338L510 338L510 339L512 339L512 340L514 340L514 341L516 341L516 342L518 342L518 343L520 343L520 344L523 345L523 344L524 344L524 291L523 291L522 279L521 279L520 271L519 271L517 262L516 262L516 260L515 260L515 258L514 258L514 255L513 255L513 253L511 252L510 248L508 247L507 243L506 243L506 242L504 241L504 239L501 237L501 235L496 231L496 229L495 229L494 227L492 227L492 226L491 226L487 221L485 221L483 218L481 218L480 216L476 215L475 213L473 213L473 212L471 212L471 211L469 211L469 210L466 210L466 209L464 209L464 208L461 208L461 207L458 207L458 206L455 206L455 205L451 205L451 204L447 204L447 203L442 203L442 202L404 202ZM404 336L403 336L403 338L402 338L402 350L403 350L403 351L402 351L402 382L403 382L404 384L419 384L419 383L425 383L425 382L429 382L429 381L435 380L435 379L439 378L440 376L446 374L446 373L458 362L458 360L460 359L460 357L461 357L461 355L462 355L462 353L463 353L463 351L464 351L464 348L465 348L465 346L466 346L466 341L467 341L467 337L466 337L466 336L404 336ZM117 308L116 308L116 309L111 309L111 310L108 310L108 311L106 311L105 313L103 313L103 314L102 314L102 315L101 315L101 316L100 316L100 317L99 317L99 318L97 319L97 321L96 321L96 323L95 323L95 326L94 326L93 336L94 336L94 341L95 341L95 344L96 344L97 348L98 348L98 349L99 349L99 350L100 350L100 351L101 351L101 352L102 352L102 353L103 353L104 355L106 355L106 356L108 356L108 357L110 357L110 358L117 358L117 359L122 359L122 358L127 358L127 357L129 357L129 356L133 355L133 354L134 354L134 353L135 353L135 352L136 352L136 351L137 351L137 350L138 350L138 349L140 348L140 346L141 346L141 344L142 344L142 342L143 342L143 336L144 336L144 331L143 331L143 326L142 326L142 323L141 323L140 319L139 319L139 318L138 318L138 317L137 317L137 316L136 316L136 315L135 315L134 313L132 313L131 311L129 311L129 310L126 310L126 309L121 309L121 308L117 308ZM199 308L198 308L198 309L194 309L194 310L191 310L191 311L189 311L188 313L186 313L186 314L185 314L185 315L184 315L184 316L183 316L183 317L182 317L182 318L180 319L180 321L179 321L179 323L178 323L178 326L177 326L177 330L176 330L176 337L177 337L177 341L178 341L178 344L179 344L180 348L181 348L181 349L182 349L182 350L183 350L183 351L184 351L184 352L185 352L186 354L188 354L189 356L191 356L191 357L193 357L193 358L198 358L198 359L205 359L205 358L210 358L210 357L214 356L215 354L217 354L217 353L218 353L218 352L219 352L219 351L220 351L220 350L221 350L221 349L223 348L223 346L224 346L224 344L225 344L225 341L226 341L226 327L225 327L225 324L224 324L224 322L223 322L222 318L221 318L221 317L220 317L220 316L219 316L219 315L218 315L217 313L215 313L214 311L212 311L212 310L209 310L209 309L205 309L205 308L199 308ZM282 308L281 308L281 309L277 309L277 310L274 310L274 311L272 311L271 313L269 313L269 314L268 314L268 315L267 315L267 316L266 316L266 317L265 317L265 318L263 319L263 321L262 321L262 323L261 323L261 325L260 325L260 329L259 329L259 337L260 337L260 342L261 342L261 344L262 344L263 348L264 348L264 349L265 349L265 350L266 350L266 351L267 351L267 352L268 352L269 354L271 354L272 356L274 356L274 357L276 357L276 358L281 358L281 359L288 359L288 358L292 358L292 357L295 357L295 356L297 356L298 354L300 354L300 353L301 353L301 352L302 352L302 351L303 351L303 350L305 349L305 347L307 346L307 344L308 344L308 340L309 340L309 326L308 326L308 323L307 323L307 321L305 320L305 318L304 318L304 317L303 317L303 316L302 316L302 315L301 315L300 313L298 313L297 311L295 311L295 310L292 310L292 309L282 308Z"></path>
</svg>